<svg width="48" height="19" viewBox="0 0 48 19" fill="none" xmlns="http://www.w3.org/2000/svg">
<path d="M3.024 1.2H6.6L9.336 18H6.696L6.216 14.664V14.712H3.216L2.736 18H0.288L3.024 1.2ZM5.904 12.432L4.728 4.128H4.68L3.528 12.432H5.904ZM10.6168 1.2H14.6008C15.9608 1.2 16.9528 1.52 17.5768 2.16C18.2008 2.784 18.5128 3.752 18.5128 5.064V5.736C18.5128 6.6 18.3688 7.304 18.0808 7.848C17.8088 8.392 17.3848 8.784 16.8088 9.024V9.072C18.1208 9.52 18.7768 10.688 18.7768 12.576V14.016C18.7768 15.312 18.4328 16.304 17.7448 16.992C17.0728 17.664 16.0808 18 14.7688 18H10.6168V1.2ZM14.2888 8.04C14.8168 8.04 15.2088 7.904 15.4648 7.632C15.7368 7.36 15.8728 6.904 15.8728 6.264V5.328C15.8728 4.72 15.7608 4.28 15.5368 4.008C15.3288 3.736 14.9928 3.6 14.5288 3.6H13.2568V8.04H14.2888ZM14.7688 15.6C15.2328 15.6 15.5768 15.48 15.8008 15.24C16.0248 14.984 16.1368 14.552 16.1368 13.944V12.48C16.1368 11.712 16.0008 11.184 15.7288 10.896C15.4728 10.592 15.0408 10.44 14.4328 10.44H13.2568V15.6H14.7688ZM24.1359 18.24C22.8399 18.24 21.8479 17.872 21.1599 17.136C20.4719 16.4 20.1279 15.36 20.1279 14.016V5.184C20.1279 3.84 20.4719 2.8 21.1599 2.064C21.8479 1.328 22.8399 0.959999 24.1359 0.959999C25.4319 0.959999 26.4239 1.328 27.1119 2.064C27.7999 2.8 28.1439 3.84 28.1439 5.184V14.016C28.1439 15.36 27.7999 16.4 27.1119 17.136C26.4239 17.872 25.4319 18.24 24.1359 18.24ZM24.1359 15.84C25.0479 15.84 25.5039 15.288 25.5039 14.184V5.016C25.5039 3.912 25.0479 3.36 24.1359 3.36C23.2239 3.36 22.7679 3.912 22.7679 5.016V14.184C22.7679 15.288 23.2239 15.84 24.1359 15.84ZM33.7693 18.24C32.4893 18.24 31.5133 17.88 30.8413 17.16C30.1693 16.424 29.8333 15.376 29.8333 14.016V1.2H32.4733V14.208C32.4733 14.784 32.5853 15.2 32.8093 15.456C33.0493 15.712 33.3853 15.84 33.8173 15.84C34.2493 15.84 34.5773 15.712 34.8013 15.456C35.0413 15.2 35.1613 14.784 35.1613 14.208V1.2H37.7053V14.016C37.7053 15.376 37.3693 16.424 36.6973 17.16C36.0253 17.88 35.0493 18.24 33.7693 18.24ZM41.6496 3.6H38.8896V1.2H47.0496V3.6H44.2896V18H41.6496V3.6Z" fill="black"/>
</svg>
