<svg width="86" height="19" viewBox="0 0 86 19" fill="none" xmlns="http://www.w3.org/2000/svg">
<path d="M4.704 18.24C3.44 18.24 2.472 17.88 1.8 17.16C1.144 16.44 0.816 15.424 0.816 14.112V5.088C0.816 3.776 1.144 2.76 1.8 2.04C2.472 1.32 3.44 0.959999 4.704 0.959999C5.968 0.959999 6.928 1.32 7.584 2.04C8.256 2.76 8.592 3.776 8.592 5.088V6.864H6.096V4.92C6.096 3.88 5.656 3.36 4.776 3.36C3.896 3.36 3.456 3.88 3.456 4.92V14.304C3.456 15.328 3.896 15.84 4.776 15.84C5.656 15.84 6.096 15.328 6.096 14.304V11.736H8.592V14.112C8.592 15.424 8.256 16.44 7.584 17.16C6.928 17.88 5.968 18.24 4.704 18.24ZM14.0344 18.24C12.7384 18.24 11.7464 17.872 11.0584 17.136C10.3704 16.4 10.0264 15.36 10.0264 14.016V5.184C10.0264 3.84 10.3704 2.8 11.0584 2.064C11.7464 1.328 12.7384 0.959999 14.0344 0.959999C15.3304 0.959999 16.3224 1.328 17.0104 2.064C17.6984 2.8 18.0424 3.84 18.0424 5.184V14.016C18.0424 15.36 17.6984 16.4 17.0104 17.136C16.3224 17.872 15.3304 18.24 14.0344 18.24ZM14.0344 15.84C14.9464 15.84 15.4024 15.288 15.4024 14.184V5.016C15.4024 3.912 14.9464 3.36 14.0344 3.36C13.1224 3.36 12.6664 3.912 12.6664 5.016V14.184C12.6664 15.288 13.1224 15.84 14.0344 15.84ZM19.8278 1.2H22.4678V15.6H26.8118V18H19.8278V1.2ZM28.0778 1.2H30.7178V15.6H35.0618V18H28.0778V1.2ZM36.3278 1.2H43.5278V3.6H38.9678V8.04H42.5918V10.44H38.9678V15.6H43.5278V18H36.3278V1.2ZM48.7665 18.24C47.5025 18.24 46.5345 17.88 45.8625 17.16C45.2065 16.44 44.8785 15.424 44.8785 14.112V5.088C44.8785 3.776 45.2065 2.76 45.8625 2.04C46.5345 1.32 47.5025 0.959999 48.7665 0.959999C50.0305 0.959999 50.9905 1.32 51.6465 2.04C52.3185 2.76 52.6545 3.776 52.6545 5.088V6.864H50.1585V4.92C50.1585 3.88 49.7185 3.36 48.8385 3.36C47.9585 3.36 47.5185 3.88 47.5185 4.92V14.304C47.5185 15.328 47.9585 15.84 48.8385 15.84C49.7185 15.84 50.1585 15.328 50.1585 14.304V11.736H52.6545V14.112C52.6545 15.424 52.3185 16.44 51.6465 17.16C50.9905 17.88 50.0305 18.24 48.7665 18.24ZM56.298 3.6H53.538V1.2H61.698V3.6H58.938V18H56.298V3.6ZM62.9762 1.2H65.6162V18H62.9762V1.2ZM71.4094 18.24C70.1134 18.24 69.1214 17.872 68.4334 17.136C67.7454 16.4 67.4014 15.36 67.4014 14.016V5.184C67.4014 3.84 67.7454 2.8 68.4334 2.064C69.1214 1.328 70.1134 0.959999 71.4094 0.959999C72.7054 0.959999 73.6974 1.328 74.3854 2.064C75.0734 2.8 75.4174 3.84 75.4174 5.184V14.016C75.4174 15.36 75.0734 16.4 74.3854 17.136C73.6974 17.872 72.7054 18.24 71.4094 18.24ZM71.4094 15.84C72.3214 15.84 72.7774 15.288 72.7774 14.184V5.016C72.7774 3.912 72.3214 3.36 71.4094 3.36C70.4974 3.36 70.0414 3.912 70.0414 5.016V14.184C70.0414 15.288 70.4974 15.84 71.4094 15.84ZM77.2028 1.2H80.5148L83.0828 11.256H83.1308V1.2H85.4828V18H82.7708L79.6028 5.736H79.5548V18H77.2028V1.2Z" fill="black"/>
</svg>
