<svg width="64" height="19" viewBox="0 0 64 19" fill="none" xmlns="http://www.w3.org/2000/svg">
<path d="M4.704 18.24C3.44 18.24 2.472 17.88 1.8 17.16C1.144 16.44 0.816 15.424 0.816 14.112V5.088C0.816 3.776 1.144 2.76 1.8 2.04C2.472 1.32 3.44 0.959999 4.704 0.959999C5.968 0.959999 6.928 1.32 7.584 2.04C8.256 2.76 8.592 3.776 8.592 5.088V6.864H6.096V4.92C6.096 3.88 5.656 3.36 4.776 3.36C3.896 3.36 3.456 3.88 3.456 4.92V14.304C3.456 15.328 3.896 15.84 4.776 15.84C5.656 15.84 6.096 15.328 6.096 14.304V11.736H8.592V14.112C8.592 15.424 8.256 16.44 7.584 17.16C6.928 17.88 5.968 18.24 4.704 18.24ZM14.0344 18.24C12.7384 18.24 11.7464 17.872 11.0584 17.136C10.3704 16.4 10.0264 15.36 10.0264 14.016V5.184C10.0264 3.84 10.3704 2.8 11.0584 2.064C11.7464 1.328 12.7384 0.959999 14.0344 0.959999C15.3304 0.959999 16.3224 1.328 17.0104 2.064C17.6984 2.8 18.0424 3.84 18.0424 5.184V14.016C18.0424 15.36 17.6984 16.4 17.0104 17.136C16.3224 17.872 15.3304 18.24 14.0344 18.24ZM14.0344 15.84C14.9464 15.84 15.4024 15.288 15.4024 14.184V5.016C15.4024 3.912 14.9464 3.36 14.0344 3.36C13.1224 3.36 12.6664 3.912 12.6664 5.016V14.184C12.6664 15.288 13.1224 15.84 14.0344 15.84ZM19.8278 1.2H23.1398L25.7078 11.256H25.7558V1.2H28.1078V18H25.3958L22.2278 5.736H22.1798V18H19.8278V1.2ZM32.1339 3.6H29.3739V1.2H37.5339V3.6H34.7739V18H32.1339V3.6ZM39.7506 1.2H43.3266L46.0626 18H43.4226L42.9426 14.664V14.712H39.9426L39.4626 18H37.0146L39.7506 1.2ZM42.6306 12.432L41.4546 4.128H41.4066L40.2546 12.432H42.6306ZM51.0165 18.24C49.7525 18.24 48.7845 17.88 48.1125 17.16C47.4565 16.44 47.1285 15.424 47.1285 14.112V5.088C47.1285 3.776 47.4565 2.76 48.1125 2.04C48.7845 1.32 49.7525 0.959999 51.0165 0.959999C52.2805 0.959999 53.2405 1.32 53.8965 2.04C54.5685 2.76 54.9045 3.776 54.9045 5.088V6.864H52.4085V4.92C52.4085 3.88 51.9685 3.36 51.0885 3.36C50.2085 3.36 49.7685 3.88 49.7685 4.92V14.304C49.7685 15.328 50.2085 15.84 51.0885 15.84C51.9685 15.84 52.4085 15.328 52.4085 14.304V11.736H54.9045V14.112C54.9045 15.424 54.5685 16.44 53.8965 17.16C53.2405 17.88 52.2805 18.24 51.0165 18.24ZM58.548 3.6H55.788V1.2H63.948V3.6H61.188V18H58.548V3.6Z" fill="black"/>
</svg>
