<svg width="58" height="57" viewBox="0 0 58 57" fill="none" xmlns="http://www.w3.org/2000/svg">
<path d="M29 15.3828C26.3701 15.3828 23.7993 16.1521 21.6127 17.5935C19.426 19.0348 17.7217 21.0834 16.7153 23.4803C15.7089 25.8771 15.4456 28.5145 15.9586 31.059C16.4717 33.6035 17.7381 35.9408 19.5977 37.7753C21.4573 39.6097 23.8266 40.859 26.4059 41.3651C28.9853 41.8713 31.6588 41.6115 34.0885 40.6187C36.5182 39.6259 38.5949 37.9446 40.0559 35.7875C41.517 33.6304 42.2969 31.0943 42.2969 28.5C42.2929 25.0223 40.8907 21.6882 38.3979 19.2291C35.9051 16.77 32.5253 15.3867 29 15.3828ZM29 38.1953C27.0562 38.1953 25.156 37.6267 23.5398 36.5614C21.9236 35.496 20.6639 33.9818 19.92 32.2102C19.1761 30.4386 18.9815 28.4892 19.3607 26.6085C19.7399 24.7278 20.676 23.0003 22.0505 21.6444C23.425 20.2885 25.1762 19.3651 27.0826 18.991C28.9891 18.6169 30.9652 18.8089 32.7611 19.5427C34.5569 20.2765 36.0919 21.5192 37.1718 23.1136C38.2517 24.708 38.8281 26.5824 38.8281 28.5C38.8251 31.0705 37.7887 33.5348 35.9462 35.3524C34.1038 37.17 31.6057 38.1924 29 38.1953ZM41.7188 0.554688H16.2812C12.1428 0.559367 8.17529 2.1832 5.24899 5.06995C2.3227 7.95671 0.676618 11.8706 0.671875 15.9531V41.0469C0.676618 45.1294 2.3227 49.0433 5.24899 51.93C8.17529 54.8168 12.1428 56.4406 16.2812 56.4453H41.7188C45.8572 56.4406 49.8247 54.8168 52.751 51.93C55.6773 49.0433 57.3234 45.1294 57.3281 41.0469V15.9531C57.3234 11.8706 55.6773 7.95671 52.751 5.06995C49.8247 2.1832 45.8572 0.559367 41.7188 0.554688ZM53.8594 41.0469C53.8558 44.2222 52.5755 47.2664 50.2995 49.5117C48.0235 51.7569 44.9375 53.0199 41.7188 53.0234H16.2812C13.0625 53.0199 9.97653 51.7569 7.7005 49.5117C5.42447 47.2664 4.14422 44.2222 4.14062 41.0469V15.9531C4.14422 12.7778 5.42447 9.73361 7.7005 7.48833C9.97653 5.24306 13.0625 3.98011 16.2812 3.97656H41.7188C44.9375 3.98011 48.0235 5.24306 50.2995 7.48833C52.5755 9.73361 53.8558 12.7778 53.8594 15.9531V41.0469ZM46.9219 13.6719C46.9219 14.2359 46.7523 14.7872 46.4347 15.2561C46.1171 15.7251 45.6656 16.0905 45.1374 16.3064C44.6092 16.5222 44.028 16.5787 43.4673 16.4686C42.9066 16.3586 42.3915 16.087 41.9873 15.6882C41.583 15.2894 41.3077 14.7813 41.1962 14.2282C41.0846 13.675 41.1419 13.1017 41.3607 12.5806C41.5794 12.0596 41.9499 11.6142 42.4253 11.3009C42.9007 10.9876 43.4595 10.8203 44.0312 10.8203C44.7976 10.8212 45.5323 11.1219 46.0742 11.6565C46.6161 12.1911 46.921 12.9159 46.9219 13.6719Z" fill="black"/>
</svg>
