<svg width="76" height="19" viewBox="0 0 76 19" fill="none" xmlns="http://www.w3.org/2000/svg">
<path d="M0.984 1.2H3.624V15.6H7.968V18H0.984V1.2ZM12.9563 18.24C11.6603 18.24 10.6683 17.872 9.98025 17.136C9.29225 16.4 8.94825 15.36 8.94825 14.016V5.184C8.94825 3.84 9.29225 2.8 9.98025 2.064C10.6683 1.328 11.6603 0.959999 12.9563 0.959999C14.2523 0.959999 15.2443 1.328 15.9323 2.064C16.6203 2.8 16.9643 3.84 16.9643 5.184V14.016C16.9643 15.36 16.6203 16.4 15.9323 17.136C15.2443 17.872 14.2523 18.24 12.9563 18.24ZM12.9563 15.84C13.8683 15.84 14.3242 15.288 14.3242 14.184V5.016C14.3242 3.912 13.8683 3.36 12.9563 3.36C12.0443 3.36 11.5883 3.912 11.5883 5.016V14.184C11.5883 15.288 12.0443 15.84 12.9563 15.84ZM22.5656 18.24C21.2696 18.24 20.2776 17.872 19.5896 17.136C18.9016 16.4 18.5576 15.36 18.5576 14.016V5.184C18.5576 3.84 18.9016 2.8 19.5896 2.064C20.2776 1.328 21.2696 0.959999 22.5656 0.959999C23.8616 0.959999 24.8536 1.328 25.5416 2.064C26.2296 2.8 26.5736 3.84 26.5736 5.184V14.016C26.5736 15.36 26.2296 16.4 25.5416 17.136C24.8536 17.872 23.8616 18.24 22.5656 18.24ZM22.5656 15.84C23.4776 15.84 23.9336 15.288 23.9336 14.184V5.016C23.9336 3.912 23.4776 3.36 22.5656 3.36C21.6536 3.36 21.1976 3.912 21.1976 5.016V14.184C21.1976 15.288 21.6536 15.84 22.5656 15.84ZM28.359 1.2H30.999V8.28L34.359 1.2H36.999L33.855 7.368L37.047 18H34.287L32.055 10.512L30.999 12.648V18H28.359V1.2ZM38.2965 1.2H42.2805C43.6405 1.2 44.6325 1.52 45.2565 2.16C45.8805 2.784 46.1925 3.752 46.1925 5.064V5.736C46.1925 6.6 46.0485 7.304 45.7605 7.848C45.4885 8.392 45.0645 8.784 44.4885 9.024V9.072C45.8005 9.52 46.4565 10.688 46.4565 12.576V14.016C46.4565 15.312 46.1125 16.304 45.4245 16.992C44.7525 17.664 43.7605 18 42.4485 18H38.2965V1.2ZM41.9685 8.04C42.4965 8.04 42.8885 7.904 43.1445 7.632C43.4165 7.36 43.5525 6.904 43.5525 6.264V5.328C43.5525 4.72 43.4405 4.28 43.2165 4.008C43.0085 3.736 42.6725 3.6 42.2085 3.6H40.9365V8.04H41.9685ZM42.4485 15.6C42.9125 15.6 43.2565 15.48 43.4805 15.24C43.7045 14.984 43.8165 14.552 43.8165 13.944V12.48C43.8165 11.712 43.6805 11.184 43.4085 10.896C43.1525 10.592 42.7205 10.44 42.1125 10.44H40.9365V15.6H42.4485ZM51.8156 18.24C50.5196 18.24 49.5276 17.872 48.8396 17.136C48.1516 16.4 47.8076 15.36 47.8076 14.016V5.184C47.8076 3.84 48.1516 2.8 48.8396 2.064C49.5276 1.328 50.5196 0.959999 51.8156 0.959999C53.1116 0.959999 54.1036 1.328 54.7916 2.064C55.4796 2.8 55.8236 3.84 55.8236 5.184V14.016C55.8236 15.36 55.4796 16.4 54.7916 17.136C54.1036 17.872 53.1116 18.24 51.8156 18.24ZM51.8156 15.84C52.7276 15.84 53.1836 15.288 53.1836 14.184V5.016C53.1836 3.912 52.7276 3.36 51.8156 3.36C50.9036 3.36 50.4476 3.912 50.4476 5.016V14.184C50.4476 15.288 50.9036 15.84 51.8156 15.84ZM61.425 18.24C60.129 18.24 59.137 17.872 58.449 17.136C57.761 16.4 57.417 15.36 57.417 14.016V5.184C57.417 3.84 57.761 2.8 58.449 2.064C59.137 1.328 60.129 0.959999 61.425 0.959999C62.721 0.959999 63.713 1.328 64.401 2.064C65.089 2.8 65.433 3.84 65.433 5.184V14.016C65.433 15.36 65.089 16.4 64.401 17.136C63.713 17.872 62.721 18.24 61.425 18.24ZM61.425 15.84C62.337 15.84 62.793 15.288 62.793 14.184V5.016C62.793 3.912 62.337 3.36 61.425 3.36C60.513 3.36 60.057 3.912 60.057 5.016V14.184C60.057 15.288 60.513 15.84 61.425 15.84ZM67.2184 1.2H69.8584V8.28L73.2184 1.2H75.8584L72.7144 7.368L75.9064 18H73.1464L70.9144 10.512L69.8584 12.648V18H67.2184V1.2Z" fill="black"/>
</svg>
