<svg width="38" height="34" viewBox="0 0 38 34" fill="none" xmlns="http://www.w3.org/2000/svg">
<path d="M2.12216 1.10206L36.6709 16.2341C36.8593 16.3166 37.018 16.4443 37.1289 16.6029C37.2398 16.7614 37.2986 16.9444 37.2986 17.1311C37.2986 17.3178 37.2398 17.5007 37.1289 17.6592C37.018 17.8178 36.8593 17.9455 36.6709 18.0281L2.11991 33.1601C1.92634 33.2446 1.70953 33.2779 1.49529 33.256C1.28104 33.234 1.0784 33.1579 0.911487 33.0365C0.744577 32.9151 0.620436 32.7536 0.553849 32.5713C0.487261 32.3889 0.481034 32.1934 0.535908 32.0081L4.96616 17.1401L0.533659 2.25606C0.477876 2.07029 0.483525 1.87416 0.549932 1.69117C0.616339 1.50818 0.740686 1.34609 0.908078 1.22431C1.07547 1.10253 1.27881 1.02623 1.49374 1.00455C1.70867 0.982866 1.92607 1.01672 2.11991 1.10206H2.12216ZM3.34391 3.86806L6.96641 16.0321L7.10591 16.0081L7.24991 16.0001H22.9999C23.281 15.9996 23.5522 16.0927 23.7599 16.2611C23.9677 16.4294 24.097 16.6608 24.1224 16.9097C24.1478 17.1586 24.0674 17.4069 23.8972 17.6057C23.7269 17.8046 23.479 17.9395 23.2024 17.9841L22.9999 18.0001H7.24991C7.1805 18.0003 7.11121 17.995 7.04291 17.9841L3.34616 30.3961L33.6267 17.1321L3.34391 3.86806Z" fill="black"/>
</svg>
