<svg width="69" height="19" viewBox="0 0 69 19" fill="none" xmlns="http://www.w3.org/2000/svg">
<path d="M4.416 18.24C3.136 18.24 2.168 17.88 1.512 17.16C0.856 16.424 0.528 15.376 0.528 14.016V13.056H3.024V14.208C3.024 15.296 3.48 15.84 4.392 15.84C4.84 15.84 5.176 15.712 5.4 15.456C5.64 15.184 5.76 14.752 5.76 14.16C5.76 13.456 5.6 12.84 5.28 12.312C4.96 11.768 4.368 11.12 3.504 10.368C2.416 9.408 1.656 8.544 1.224 7.776C0.792 6.992 0.576 6.112 0.576 5.136C0.576 3.808 0.912 2.784 1.584 2.064C2.256 1.328 3.232 0.959999 4.512 0.959999C5.776 0.959999 6.728 1.328 7.368 2.064C8.024 2.784 8.352 3.824 8.352 5.184V5.88H5.856V5.016C5.856 4.44 5.744 4.024 5.52 3.768C5.296 3.496 4.968 3.36 4.536 3.36C3.656 3.36 3.216 3.896 3.216 4.968C3.216 5.576 3.376 6.144 3.696 6.672C4.032 7.2 4.632 7.84 5.496 8.592C6.6 9.552 7.36 10.424 7.776 11.208C8.192 11.992 8.4 12.912 8.4 13.968C8.4 15.344 8.056 16.4 7.368 17.136C6.696 17.872 5.712 18.24 4.416 18.24ZM11.9777 3.6H9.21769V1.2H17.3777V3.6H14.6177V18H11.9777V3.6ZM22.3781 18.24C21.0821 18.24 20.0901 17.872 19.4021 17.136C18.7141 16.4 18.3701 15.36 18.3701 14.016V5.184C18.3701 3.84 18.7141 2.8 19.4021 2.064C20.0901 1.328 21.0821 0.959999 22.3781 0.959999C23.6741 0.959999 24.6661 1.328 25.3541 2.064C26.0421 2.8 26.3861 3.84 26.3861 5.184V14.016C26.3861 15.36 26.0421 16.4 25.3541 17.136C24.6661 17.872 23.6741 18.24 22.3781 18.24ZM22.3781 15.84C23.2901 15.84 23.7461 15.288 23.7461 14.184V5.016C23.7461 3.912 23.2901 3.36 22.3781 3.36C21.4661 3.36 21.0101 3.912 21.0101 5.016V14.184C21.0101 15.288 21.4661 15.84 22.3781 15.84ZM31.8915 18.24C30.6275 18.24 29.6595 17.88 28.9875 17.16C28.3315 16.44 28.0035 15.424 28.0035 14.112V5.088C28.0035 3.776 28.3315 2.76 28.9875 2.04C29.6595 1.32 30.6275 0.959999 31.8915 0.959999C33.1555 0.959999 34.1155 1.32 34.7715 2.04C35.4435 2.76 35.7795 3.776 35.7795 5.088V6.864H33.2835V4.92C33.2835 3.88 32.8435 3.36 31.9635 3.36C31.0835 3.36 30.6435 3.88 30.6435 4.92V14.304C30.6435 15.328 31.0835 15.84 31.9635 15.84C32.8435 15.84 33.2835 15.328 33.2835 14.304V11.736H35.7795V14.112C35.7795 15.424 35.4435 16.44 34.7715 17.16C34.1155 17.88 33.1555 18.24 31.8915 18.24ZM37.359 1.2H39.999V8.28L43.359 1.2H45.999L42.855 7.368L46.047 18H43.287L41.055 10.512L39.999 12.648V18H37.359V1.2ZM47.2965 1.2H49.9365V18H47.2965V1.2ZM55.3457 18.24C54.0657 18.24 53.0977 17.88 52.4417 17.16C51.7857 16.424 51.4577 15.376 51.4577 14.016V13.056H53.9537V14.208C53.9537 15.296 54.4097 15.84 55.3217 15.84C55.7697 15.84 56.1057 15.712 56.3297 15.456C56.5697 15.184 56.6897 14.752 56.6897 14.16C56.6897 13.456 56.5297 12.84 56.2097 12.312C55.8897 11.768 55.2977 11.12 54.4337 10.368C53.3457 9.408 52.5857 8.544 52.1537 7.776C51.7217 6.992 51.5057 6.112 51.5057 5.136C51.5057 3.808 51.8417 2.784 52.5137 2.064C53.1857 1.328 54.1617 0.959999 55.4417 0.959999C56.7057 0.959999 57.6577 1.328 58.2977 2.064C58.9537 2.784 59.2817 3.824 59.2817 5.184V5.88H56.7857V5.016C56.7857 4.44 56.6737 4.024 56.4497 3.768C56.2257 3.496 55.8977 3.36 55.4657 3.36C54.5857 3.36 54.1457 3.896 54.1457 4.968C54.1457 5.576 54.3057 6.144 54.6257 6.672C54.9617 7.2 55.5617 7.84 56.4257 8.592C57.5297 9.552 58.2897 10.424 58.7057 11.208C59.1217 11.992 59.3297 12.912 59.3297 13.968C59.3297 15.344 58.9857 16.4 58.2977 17.136C57.6257 17.872 56.6417 18.24 55.3457 18.24ZM62.9074 3.6H60.1474V1.2H68.3074V3.6H65.5474V18H62.9074V3.6Z" fill="black"/>
</svg>
