<svg width="25" height="24" viewBox="0 0 25 24" fill="none" xmlns="http://www.w3.org/2000/svg">
<path d="M12.5 2.85C14.1916 2.85 15.5625 4.26 15.5625 6C15.5625 7.74 14.1916 9.15 12.5 9.15C10.8083 9.15 9.43748 7.74 9.43748 6C9.43748 4.26 10.8083 2.85 12.5 2.85ZM12.5 16.35C16.8312 16.35 21.3958 18.54 21.3958 19.5V21.15H3.60415V19.5C3.60415 18.54 8.16873 16.35 12.5 16.35ZM12.5 0C9.27706 0 6.66665 2.685 6.66665 6C6.66665 9.315 9.27706 12 12.5 12C15.7229 12 18.3333 9.315 18.3333 6C18.3333 2.685 15.7229 0 12.5 0ZM12.5 13.5C8.60623 13.5 0.833313 15.51 0.833313 19.5V24H24.1666V19.5C24.1666 15.51 16.3937 13.5 12.5 13.5Z" fill="black"/>
</svg>
